<svg xmlns="http://www.w3.org/2000/svg" xmlns:xlink="http://www.w3.org/1999/xlink" width="614" height="453.857" viewBox="0 0 614 453.857"><defs><linearGradient id="a" x1="-0.721" y1="0.189" x2="1.546" y2="0.781" gradientUnits="objectBoundingBox"><stop offset="0" stop-color="#fff"/><stop offset="0.169" stop-color="#8a8b8d"/><stop offset="0.403" stop-color="#3d3d3d"/><stop offset="0.671" stop-color="#636363"/><stop offset="0.849" stop-color="#d6d6d6"/><stop offset="1" stop-color="#848687"/></linearGradient><linearGradient id="b" x1="-0.731" y1="0.189" x2="1.556" y2="0.779" gradientUnits="objectBoundingBox"><stop offset="0" stop-color="#fff"/><stop offset="0.169" stop-color="#edeeee"/><stop offset="0.403" stop-color="#fff"/><stop offset="0.671" stop-color="#cfcfcf"/><stop offset="0.849" stop-color="#d6d6d6"/><stop offset="1" stop-color="#c1c2c2"/></linearGradient><linearGradient id="c" x1="0" y1="0.5" x2="1" y2="0.5" xlink:href="#a"/><linearGradient id="d" x1="0" y1="0.5" x2="1" y2="0.5" xlink:href="#a"/><linearGradient id="e" x1="68.827" y1="0.5" x2="69.827" y2="0.5" gradientUnits="objectBoundingBox"><stop offset="0" stop-color="#fff"/><stop offset="0.376" stop-color="#bababa"/><stop offset="0.685" stop-color="#e9e9e9"/></linearGradient><linearGradient id="f" x1="0" y1="0.5" x2="1" y2="0.5" xlink:href="#a"/><linearGradient id="g" x1="0.854" y1="0.853" x2="0.132" y2="0.134" gradientUnits="objectBoundingBox"><stop offset="0" stop-color="#adadad"/><stop offset="0.186" stop-color="#ababab"/><stop offset="0.403" stop-color="#adadad"/><stop offset="0.671" stop-color="#757575"/><stop offset="0.849" stop-color="#949597"/><stop offset="1" stop-color="#818284"/></linearGradient><linearGradient id="h" x1="0.257" y1="0.34" x2="0.763" y2="0.657" gradientUnits="objectBoundingBox"><stop offset="0" stop-color="#fff"/><stop offset="0.186" stop-color="#525252"/><stop offset="0.403" stop-color="#fff"/><stop offset="0.671" stop-color="#424242"/><stop offset="0.849" stop-color="#d6d6d6"/><stop offset="1" stop-color="#5e5e60"/></linearGradient><linearGradient id="i" x1="0.854" y1="0.853" x2="0.145" y2="0.147" gradientUnits="objectBoundingBox"><stop offset="0" stop-color="#fff"/><stop offset="0.186" stop-color="#cfcfcf"/><stop offset="0.403" stop-color="#fff"/><stop offset="0.671" stop-color="#cfcfcf"/><stop offset="0.849" stop-color="#d6d6d6"/><stop offset="1" stop-color="#a4a5a6"/></linearGradient><linearGradient id="j" x1="0.068" y1="0.198" x2="0.907" y2="0.956" gradientUnits="objectBoundingBox"><stop offset="0" stop-color="#2c2929"/><stop offset="0.107" stop-color="#2a2a2d"/><stop offset="0.239" stop-color="#1d1b1c"/><stop offset="0.455" stop-color="#1f1d1e"/><stop offset="0.581" stop-color="#252426"/><stop offset="0.584" stop-color="#262527"/><stop offset="0.739" stop-color="#29282a"/><stop offset="0.844" stop-color="#313032"/><stop offset="0.889" stop-color="#262325"/><stop offset="0.9" stop-color="#231f21"/></linearGradient></defs><g transform="translate(-825.333 -93.144)"><g transform="translate(1073.025 201.893)"><g transform="translate(0.9 0.9)"><path d="M109.117,27.674H82.959l-1-8.392A10.537,10.537,0,0,1,92.423,7.5h6.029a10.537,10.537,0,0,1,10.463,11.783Z" transform="translate(-72.95 -7.499)" fill="#685e68"/><path d="M79.043,153.021H81l-1.2-7.1h-.758a3.549,3.549,0,0,0,0,7.1Z" transform="translate(-67.328 -129.298)" fill="#ffbd86"/><path d="M50.681,335.746H44.818l-.9-1.2-.9,1.2H34.575l-3.644-1.2-4.323,1.2H18.166l-.9-1.2-.9,1.2H9.3a1.8,1.8,0,0,1-1.8-1.925l.953-13.935a4.8,4.8,0,0,1,3.736-4.359l12.474-2.815h11.9l8.476,1.919,3.587,1.014A4.8,4.8,0,0,1,52.366,320l.112,13.818a1.8,1.8,0,0,1-1.8,1.924Z" transform="translate(-7.499 -276.054)" fill="#f3f0f3"/><path d="M156.379,273.584a5.952,5.952,0,0,1-5.952-5.952v-7.11h11.9v7.11A5.952,5.952,0,0,1,156.379,273.584Z" transform="translate(-133.26 -230.132)" fill="#f6a96c"/><path d="M203.427,7.5h-3.6a10.537,10.537,0,0,1,10.463,11.783l-1,8.392h3.6l1-8.392A10.537,10.537,0,0,0,203.427,7.5Z" transform="translate(-176.724 -7.499)" fill="#554e56"/><path d="M117.316,66.489a27.369,27.369,0,0,0,11.066,5.031,22.443,22.443,0,0,0,2.905.568.6.6,0,0,1,.526.411,10.123,10.123,0,0,1,.535,3.258V83.2A10.385,10.385,0,0,1,121.971,93.84,9.932,9.932,0,0,1,111.352,83.2V75.757a10.777,10.777,0,0,1,5.295-9.308.6.6,0,0,1,.669.04Z" transform="translate(-98.878 -59.295)" fill="#fed2a4"/><path d="M359.961,7.5H345.446a1.8,1.8,0,0,0-1.8,1.8V19.843a1.8,1.8,0,0,0,1.8,1.8H350.1a.6.6,0,0,1,.6.6v2.589a.6.6,0,0,0,.994.454l3.869-3.35a1.2,1.2,0,0,1,.786-.293h3.609a1.8,1.8,0,0,0,1.8-1.8V9.3A1.8,1.8,0,0,0,359.961,7.5Z" transform="translate(-303.27 -7.499)" fill="#43efd4"/><path d="M328.742,347.883l-.953-13.938a4.8,4.8,0,0,0-3.732-4.358l-3.948-.894a5.116,5.116,0,0,1,2.813,4.225l1.015,14.84a1.918,1.918,0,0,1-1.914,2.049h4.921A1.8,1.8,0,0,0,328.742,347.883Z" transform="translate(-282.562 -290.115)" fill="#e2dee2"/><path d="M166.6,361.306l3.983,5.144,3.983-5.144V359H166.6Z" transform="translate(-147.491 -316.781)" fill="#fd8087"/><path d="M166.6,431.06l3.983-10.025,3.983,10.025Z" transform="translate(-147.488 -371.366)" fill="#fd8087"/><path d="M205.137,303.37l-5.6,6.5L205.165,314a.6.6,0,0,0,.947-.381l1.482-8.483a.6.6,0,0,0-.189-.549l-1.41-1.276A.6.6,0,0,0,205.137,303.37Z" transform="translate(-176.468 -267.65)" fill="#e2dee2"/><path d="M135.32,303.339l5.5,6.5-5.576,4.13a.6.6,0,0,1-.949-.379l-1.48-8.489a.6.6,0,0,1,.2-.555l1.452-1.269A.6.6,0,0,1,135.32,303.339Z" transform="translate(-117.759 -267.619)" fill="#e2dee2"/><path d="M280.127,145.924h-.758l-1.2,7.1h1.959a3.549,3.549,0,0,0,0-7.1Z" transform="translate(-245.658 -129.298)" fill="#f6a96c"/><g transform="translate(21.29 12.223)"><path d="M196.644,110.128a.6.6,0,0,0-.526-.411,26.723,26.723,0,0,1-3.145-.449.589.589,0,0,1,.068.14,10.868,10.868,0,0,1,.535,3.378v8.167a10.72,10.72,0,0,1-8.817,10.6,10.556,10.556,0,0,0,1.8.155,10.688,10.688,0,0,0,10.619-10.757v-7.447A10.861,10.861,0,0,0,196.644,110.128Z" transform="translate(-184.758 -109.268)" fill="#ffbd86"/></g></g><g transform="translate(0 0)"><path d="M30.872,35.782V34.16a11.69,11.69,0,0,0,4.618-8.632A4.446,4.446,0,0,0,38.365,17.8l.6-5A11.438,11.438,0,0,0,27.6.006h-7.23a11.47,11.47,0,0,0-10.78,7.6.9.9,0,0,0,1.7.6,9.664,9.664,0,0,1,9.083-6.407H27.6a9.636,9.636,0,0,1,9.569,10.775l-.505,4.242a4.435,4.435,0,0,0-1.18-.191,11.738,11.738,0,0,0-.554-2.924,1.5,1.5,0,0,0-1.309-1.03,26.424,26.424,0,0,1-13.737-5.3,1.494,1.494,0,0,0-1.674-.1A11.726,11.726,0,0,0,12.5,16.635a4.431,4.431,0,0,0-1.187.193L10.8,12.583c-.031-.259-.052-.521-.062-.78a.9.9,0,0,0-1.8.07c.012.306.037.617.073.922l.6,5.006a4.446,4.446,0,0,0,2.883,7.725A11.69,11.69,0,0,0,17.166,34.2v1.57l-1.672,1.453L5.394,39.5A5.741,5.741,0,0,0,.958,44.678L.673,48.843a.9.9,0,0,0,.837.96l.062,0a.9.9,0,0,0,.9-.839L2.756,44.8A3.928,3.928,0,0,1,5.791,41.26l9.386-2.118,1.376,7.889a1.516,1.516,0,0,0,2.373.949l1.218-.9,2.822,3.644L19.4,59.7H11.567V52.555a.9.9,0,1,0-1.8,0V59.7H2.7a.9.9,0,0,1-.9-.962L2.2,53a.9.9,0,0,0-1.8-.123L.005,58.613A2.7,2.7,0,0,0,2.7,61.5H45.282a2.7,2.7,0,0,0,2.7-2.887l-.953-13.938A5.67,5.67,0,0,0,42.593,39.5L32.466,37.207Zm.238,2.624-1.37,7.843-4.456-3.273,4.767-5.528Zm4.4-14.681V18.438a2.648,2.648,0,0,1,0,5.288ZM9.967,21.081a2.651,2.651,0,0,1,2.5-2.644v5.288A2.651,2.651,0,0,1,9.967,21.081Zm4.307,3.734V17.369A9.926,9.926,0,0,1,18.954,8.94a28.269,28.269,0,0,0,14.326,5.52,9.976,9.976,0,0,1,.43,2.909v7.447a9.719,9.719,0,1,1-19.436,0Zm9.718,11.657a11.337,11.337,0,0,0,5.078-1.2v.584a1.526,1.526,0,0,0-.183.177l-4.916,5.7-4.823-5.694a1.51,1.51,0,0,0-.181-.178V35.3a11.339,11.339,0,0,0,5.024,1.169Zm-5.748,9.769L16.876,38.4l1.095-.957,4.685,5.532Zm5.723-2,2.415,1.774L23.992,49.1l-2.4-3.1Zm.025,8.771L26.647,59.7h-5.31Zm21.949,6.4a.892.892,0,0,1-.658.286H38.219V52.555a.9.9,0,0,0-1.8,0V59.7H28.586l-3.567-8.977,2.815-3.637,1.229.9a1.516,1.516,0,0,0,2.368-.952l1.381-7.9L42.2,41.258A3.879,3.879,0,0,1,45.228,44.8l.953,13.938A.892.892,0,0,1,45.941,59.412Z" transform="translate(0.001 -0.006)" fill="#293546"/><path d="M392.63,40.737h-7.854a.9.9,0,1,0,0,1.8h7.854a.9.9,0,1,0,0-1.8Z" transform="translate(-337.768 -35.845)" fill="#293546"/><path d="M392.63,77.008h-7.854a.9.9,0,1,0,0,1.8h7.854a.9.9,0,1,0,0-1.8Z" transform="translate(-337.768 -67.759)" fill="#293546"/><path d="M354.563.006h-8.6a.9.9,0,0,0,0,1.8h8.6a.9.9,0,0,1,.9.9V13.251a.9.9,0,0,1-.9.9h-4.81a2.1,2.1,0,0,0-1.376.513l-3.372,2.92V15.653a1.5,1.5,0,0,0-1.5-1.5h-4.657a.9.9,0,0,1-.9-.9V2.708a.9.9,0,0,1,.9-.9h3.187a.9.9,0,1,0,0-1.8h-3.187a2.706,2.706,0,0,0-2.7,2.7V13.251a2.706,2.706,0,0,0,2.7,2.7H343.2v2.289a1.486,1.486,0,0,0,.878,1.366,1.511,1.511,0,0,0,.629.138,1.489,1.489,0,0,0,.978-.369l3.869-3.35a.3.3,0,0,1,.2-.073h4.81a2.706,2.706,0,0,0,2.7-2.7V2.708a2.706,2.706,0,0,0-2.7-2.7Z" transform="translate(-295.77 -0.006)" fill="#293546"/><path d="M178.913,232.338a.9.9,0,0,0-1.16-.526,5.393,5.393,0,0,1-4.111.01.9.9,0,1,0-.684,1.667,7,7,0,0,0,2.675.535,7.8,7.8,0,0,0,2.754-.525A.9.9,0,0,0,178.913,232.338Z" transform="translate(-151.692 -203.919)" fill="#293546"/><path d="M151.327,158.891a.9.9,0,0,0-.9.9v1.386a.9.9,0,0,0,1.8,0v-1.386A.9.9,0,0,0,151.327,158.891Z" transform="translate(-132.358 -139.808)" fill="#293546"/><path d="M234.992,162.077a.9.9,0,0,0,.9-.9v-1.386a.9.9,0,0,0-1.8,0v1.386A.9.9,0,0,0,234.992,162.077Z" transform="translate(-205.975 -139.807)" fill="#293546"/></g></g><g transform="translate(1028.076 206.112)"><g transform="translate(0.839 0.839)"><g transform="translate(0)"><path d="M98.932,322.573l2.564-1.728,6.848,1.728,3.636,1.029a4.224,4.224,0,0,1,3.324,3.626l.827,12.234a1.678,1.678,0,0,1-1.659,1.927H110.32l-.839-.941-.839.941h-7.494l-4.077-1.3-3.665,1.3H85.913l-1.163-.324-.515.324h-5.27a1.678,1.678,0,0,1-1.659-1.927l1.834-12.234a4.474,4.474,0,0,1,3.436-3.738l10.484-2.646,2.75,1.728h3.123Z" transform="translate(-77.286 -285.794)" fill="#f3f0f3"/><g transform="translate(31.058 36.78)"><path d="M363.841,353.186l-1.834-12.234a4.474,4.474,0,0,0-3.436-3.738l-3.636-.918a4.728,4.728,0,0,1,3.275,3.854l1.937,12.926a1.773,1.773,0,0,1-1.753,2.036h3.786A1.678,1.678,0,0,0,363.841,353.186Z" transform="translate(-354.936 -336.297)" fill="#e2dee2"/></g><path d="M218.286,280.015h8.423v9.6h-8.423Z" transform="translate(-202.513 -249.531)" fill="#f6a96c"/><path d="M230.807,368.987l-3.63,3.114-3.63-3.114v-3.035l3.63-.078,3.63.885Z" transform="translate(-207.186 -325.785)" fill="#fee45a"/><path d="M190.272,310.381l-2.741,1.68a.559.559,0,0,0-.237.658l2.481,7.227a.559.559,0,0,0,.893.243l4.285-3.675-3.921-5.965A.559.559,0,0,0,190.272,310.381Z" transform="translate(-174.962 -276.427)" fill="#e2dee2"/><path d="M260.681,310.381l2.741,1.68a.559.559,0,0,1,.237.658l-2.481,7.227a.559.559,0,0,1-.893.243L256,316.515l3.921-5.965A.559.559,0,0,1,260.681,310.381Z" transform="translate(-236.009 -276.427)" fill="#e2dee2"/><path d="M229.139,430.823l-3.871-9.28-3.871,9.28Z" transform="translate(-205.277 -375.227)" fill="#fee45a"/><path d="M147.849,8.42a13.822,13.822,0,0,0-2.237.071A13.654,13.654,0,0,0,134.2,21.958v5.5H160.38v-5.5c0-7.539-4.993-13.538-12.531-13.538Z" transform="translate(-127.833 -8.308)" fill="#685e68"/><path d="M159.821,189.167H135.877a1.678,1.678,0,0,1-1.678-1.678v-8.768h27.3v8.768A1.678,1.678,0,0,1,159.821,189.167Z" transform="translate(-127.833 -159.568)" fill="#554e56"/><path d="M130.57,155.726h1.771V149.1H130.57a3.314,3.314,0,0,0,0,6.627Z" transform="translate(-121.666 -133.259)" fill="#ffbd86"/><path d="M238.461,7.5a13.73,13.73,0,0,0-2.237.184A13.653,13.653,0,0,1,247.637,21.15v5.5h4.474v-5.5A13.65,13.65,0,0,0,238.461,7.5Z" transform="translate(-218.445 -7.5)" fill="#554e56"/><path d="M175.386,69.824c-1.038,2.949-3.77,8.537-9.56,8.537v6.853a10.09,10.09,0,0,0,8.409,9.948,10.242,10.242,0,0,0,1.678.027c5.571,0,8.968-4.4,8.968-9.975l.757-6.205c-1.259,0-2.011-.912-2.994-1.356-3.541-1.6-5.391-5.522-6.2-7.83a.559.559,0,0,0-1.054,0Z" transform="translate(-155.922 -62.522)" fill="#fed2a4"/><path d="M341.061,149.1H339.29v6.627h1.771a3.314,3.314,0,0,0,0-6.627Z" transform="translate(-309.982 -133.259)" fill="#f6a96c"/><path d="M249.41,142.763v7.562A10.089,10.089,0,0,1,241,160.272a10.091,10.091,0,0,0,11.765-9.947v-6.853A8.066,8.066,0,0,1,249.41,142.763Z" transform="translate(-222.688 -127.632)" fill="#ffbd86"/></g></g><g transform="translate(0 0)"><path d="M234.707,238.859a.839.839,0,0,0-1.081-.49,5.022,5.022,0,0,1-3.829.009.839.839,0,0,0-.637,1.552,6.514,6.514,0,0,0,2.491.5,7.262,7.262,0,0,0,2.565-.489A.839.839,0,0,0,234.707,238.859Z" transform="translate(-210.87 -211.657)" fill="#293546"/><path d="M207.436,164.755a.839.839,0,0,0-.839.839v1.291a.839.839,0,1,0,1.678,0v-1.291A.839.839,0,0,0,207.436,164.755Z" transform="translate(-191.293 -146.325)" fill="#293546"/><path d="M291.1,167.723a.839.839,0,0,0,.839-.839v-1.291a.839.839,0,1,0-1.678,0v1.291A.839.839,0,0,0,291.1,167.723Z" transform="translate(-265.598 -146.324)" fill="#293546"/><path d="M82.441,36.024l-6.723,1.7a5.34,5.34,0,0,0-4.069,4.429l-.539,3.6a.839.839,0,1,0,1.659.249l.54-3.6A3.655,3.655,0,0,1,76.1,39.354l.019,0L82.3,37.79l2.348,6.841a1.421,1.421,0,0,0,2.341.514l2.621,2.248-3.421,8.2H79.253V48.941a.839.839,0,0,0-1.678,0V55.6H72.3a.839.839,0,0,1-.83-.963l.747-4.981a.839.839,0,1,0-1.659-.249l-.747,4.981a2.517,2.517,0,0,0,2.489,2.89h36.626a2.517,2.517,0,0,0,2.489-2.89l-1.832-12.226a5.343,5.343,0,0,0-4.07-4.437l-6.723-1.7-3.119-1.98v-.83a10.985,10.985,0,0,0,2.641-1.937h4.3a2.52,2.52,0,0,0,2.517-2.517V22.335a4.142,4.142,0,0,0,0-4.687v-3.16a14.489,14.489,0,0,0-23.8-11.1.839.839,0,1,0,1.079,1.285,12.811,12.811,0,0,1,21.047,9.813v1.738a4.127,4.127,0,0,0-1.748-.387h-1c-2.226,0-6.325-1.036-8.769-7.977a1.4,1.4,0,0,0-2.637,0c-2.444,6.941-6.543,7.977-8.769,7.977a.864.864,0,0,0-.091.005.835.835,0,0,0-.091-.005h-.82a4.125,4.125,0,0,0-1.7.365V14.489A12.742,12.742,0,0,1,80.037,7.3a.839.839,0,0,0-1.388-.943,14.414,14.414,0,0,0-2.5,8.132v3.09a4.138,4.138,0,0,0,0,4.827V28.76a2.52,2.52,0,0,0,2.517,2.517h4.248a10.985,10.985,0,0,0,2.641,1.937v.83ZM102.615,29.6H99.7a10.857,10.857,0,0,0,1.826-5.454h.179a4.127,4.127,0,0,0,1.748-.387v5A.84.84,0,0,1,102.615,29.6Zm1.566-9.607a2.477,2.477,0,0,1-2.475,2.475h-.162V17.517h.162A2.478,2.478,0,0,1,104.18,19.992ZM79.692,17.517v4.949H79.53a2.475,2.475,0,0,1,0-4.949ZM77.832,28.76V23.78a4.127,4.127,0,0,0,1.7.364h.18A10.857,10.857,0,0,0,81.535,29.6H78.671A.84.84,0,0,1,77.832,28.76Zm3.538-5.228v-6.05a9.35,9.35,0,0,0,6.356-3.415A17.178,17.178,0,0,0,90.618,9.13a17.177,17.177,0,0,0,2.892,4.937,9.351,9.351,0,0,0,6.356,3.415v6.05a9.248,9.248,0,1,1-18.5,0Zm9.248,10.926A10.883,10.883,0,0,0,94,33.922v.38a1.425,1.425,0,0,0-.16.2l-3.22,4.9L87.4,34.5a1.418,1.418,0,0,0-.16-.2v-.38A10.883,10.883,0,0,0,90.618,34.458Zm-6.792,2.614,2.319-1.422,3.367,5.121L86.1,43.7Zm6.438,5.264.354-.3.279.239,2.063,1.77-2.342,2.008-2.342-2.008ZM88.006,55.6l2.612-6.261L93.229,55.6Zm21.561-.291a.827.827,0,0,1-.636.291h-5.27V48.941a.839.839,0,0,0-1.678,0V55.6H95.048l-3.421-8.2,2.621-2.248a1.42,1.42,0,0,0,2.341-.514l.721-2.1a.839.839,0,1,0-1.587-.545L95.136,43.7l-3.411-2.926,3.367-5.121,2.319,1.422-.432,1.258a.839.839,0,0,0,1.587.545l.372-1.084,6.178,1.559.019,0a3.658,3.658,0,0,1,2.793,3.044l1.834,12.234a.827.827,0,0,1-.194.672Z" transform="translate(-69.788 0)" fill="#293546"/></g></g><g transform="translate(905 249.929)"><g transform="translate(47.282 34.163)"><g transform="translate(0 0)"><path d="M12.992,70.135V58.487a5.632,5.632,0,0,1,5.621-5.642h.021a5.648,5.648,0,0,0,5.279-3.719c.342-.876.705-1.752,1.09-2.607a5.835,5.835,0,0,0,.534-2.436,5.58,5.58,0,0,0-1.624-3.954,5.637,5.637,0,0,1,0-7.971l8.249-8.249a5.65,5.65,0,0,1,7.95,0l.021.021A5.663,5.663,0,0,0,46.5,25c.855-.385,1.731-.727,2.607-1.069a5.667,5.667,0,0,0,3.74-5.279v-.043a5.628,5.628,0,0,1,5.621-5.621H70.138a5.628,5.628,0,0,1,5.621,5.621v.043a5.706,5.706,0,0,0,3.761,5.3c.855.321,1.71.684,2.564,1.047a5.7,5.7,0,0,0,6.39-1.069v-.021a5.65,5.65,0,0,1,7.95,0l8.249,8.249a5.649,5.649,0,0,1,0,7.971,5.678,5.678,0,0,0-1.111,6.39c.385.855.748,1.71,1.069,2.607a5.676,5.676,0,0,0,5.3,3.719h.021a5.632,5.632,0,0,1,5.621,5.642V70.135a5.632,5.632,0,0,1-5.621,5.642h-.064a5.7,5.7,0,0,0-5.3,3.719c-.321.855-.663,1.688-1.047,2.522a5.709,5.709,0,0,0,1.09,6.39l.064.064a5.611,5.611,0,0,1,0,7.95l-8.271,8.271a5.624,5.624,0,0,1-7.95,0,5.705,5.705,0,0,0-6.411-1.111c-.834.385-1.688.748-2.543,1.069a5.664,5.664,0,0,0-3.761,5.3,5.627,5.627,0,0,1-5.621,5.621H58.47a5.7,5.7,0,0,1-3.975-1.646,5.57,5.57,0,0,1-1.646-3.975,5.674,5.674,0,0,0-3.74-5.3c-.876-.32-1.731-.684-2.565-1.069a5.673,5.673,0,0,0-6.39,1.09l-.043.021a5.611,5.611,0,0,1-7.95,0l-8.249-8.249a5.637,5.637,0,0,1,0-7.972h.021a5.7,5.7,0,0,0,1.09-6.411c-.385-.833-.748-1.71-1.069-2.565a5.648,5.648,0,0,0-5.279-3.719h-.064a5.632,5.632,0,0,1-5.621-5.642Z" transform="translate(-12.992 -12.988)" fill="#af58fa"/></g><g transform="translate(28.577 73.329)"><path d="M20.923,32.27a3.893,3.893,0,0,1-.684-.684A6.909,6.909,0,0,0,20.923,32.27Z" transform="translate(-20.239 -31.586)" fill="#ddd"/></g></g><g transform="translate(0 0)"><path d="M265.4,17.372,235.163,4.632A3.942,3.942,0,0,0,230,9.807l3.089,7.27H99.572c-.012,0-.021.007-.033.007-.045,0-.088-.007-.132-.007A72.645,72.645,0,0,0,66.667,154.6H35.728l3.088-7.287a3.943,3.943,0,0,0-5.167-5.169L3.407,154.924a3.943,3.943,0,0,0,0,7.264l30.242,12.739a3.972,3.972,0,0,0,4.879-5.841l-2.807-6.6H99.572c.038,0,.069-.02.106-.021a72.637,72.637,0,0,0,32.484-137.5H233.086L230,32.248a3.943,3.943,0,0,0,5.167,5.169l30.242-12.782a3.943,3.943,0,0,0,0-7.264Zm-101.183,72.4A64.815,64.815,0,1,1,99.407,24.963,64.887,64.887,0,0,1,164.222,89.776Z" transform="translate(-1 -4.324)" fill="#293546"/><path d="M51.851,21.595A1.753,1.753,0,0,1,50.619,23.2c-.936.366-1.879.734-2.807,1.153a1.45,1.45,0,0,1-1.979-.3,9.818,9.818,0,0,0-13.515.013L24.07,32.313a9.575,9.575,0,0,0,0,13.546,1.63,1.63,0,0,1,.47,1.169,1.958,1.958,0,0,1-.185.816c-.412.918-.8,1.862-1.186,2.84a1.72,1.72,0,0,1-1.609,1.163,9.584,9.584,0,0,0-9.565,9.584V73.078a9.6,9.6,0,0,0,9.63,9.586,1.713,1.713,0,0,1,1.586,1.155c.354.945.755,1.916,1.167,2.807A1.8,1.8,0,0,1,24.2,88.5c-.046.04-.092.085-.135.129a9.572,9.572,0,0,0,0,13.548l8.248,8.252a9.783,9.783,0,0,0,13.261.256c.649-.533,1.042-1.139,2.264-.572.928.424,1.879.828,2.826,1.176a1.742,1.742,0,0,1,1.182,1.608,9.567,9.567,0,0,0,9.561,9.563H73.083a9.573,9.573,0,0,0,9.565-9.563,1.72,1.72,0,0,1,1.205-1.609c.94-.354,1.879-.753,2.776-1.165a1.776,1.776,0,0,1,2.033.333,9.771,9.771,0,0,0,13.5-.029l8.271-8.271a9.594,9.594,0,0,0-.046-13.573,1.75,1.75,0,0,1-.316-1.966c.424-.924.8-1.848,1.147-2.761a1.784,1.784,0,0,1,1.683-1.19,9.586,9.586,0,0,0,9.565-9.586V61.43a9.589,9.589,0,0,0-9.588-9.584,1.7,1.7,0,0,1-1.583-1.1c-.354-1-.759-1.943-1.2-2.922a1.743,1.743,0,0,1,.308-1.962,9.585,9.585,0,0,0,0-13.548l-8.259-8.263a9.83,9.83,0,0,0-13.5,0c-.042.044-.089.09-.131.137a1.539,1.539,0,0,1-1.941.127c-.909-.387-1.817-.774-2.7-1.105a1.784,1.784,0,0,1-1.221-1.658,9.575,9.575,0,0,0-9.565-9.565H61.412a9.583,9.583,0,0,0-9.561,9.607Zm22.91,0a9.61,9.61,0,0,0,6.319,8.993c.8.3,1.6.641,2.314.943a9.77,9.77,0,0,0,10.8-1.854c.05-.048.1-.1.142-.146a1.426,1.426,0,0,1,2.249.11l8.279,8.279a1.713,1.713,0,0,1-.031,2.368,9.657,9.657,0,0,0-1.921,10.781c.339.762.666,1.525.974,2.382a9.671,9.671,0,0,0,9.014,6.282,1.692,1.692,0,0,1,1.679,1.7V73.078a1.707,1.707,0,0,1-1.744,1.7,9.606,9.606,0,0,0-8.991,6.28c-.285.762-.589,1.506-.943,2.27A9.75,9.75,0,0,0,104.853,94.2a1.666,1.666,0,0,1,0,2.374l-8.24,8.242a1.75,1.75,0,0,1-2.407.031,9.724,9.724,0,0,0-10.843-1.91c-.751.345-1.521.674-2.276.957a9.557,9.557,0,0,0-6.326,9,1.681,1.681,0,0,1-1.679,1.677H61.412a1.676,1.676,0,0,1-1.675-1.677,9.564,9.564,0,0,0-6.322-9c-.782-.287-1.54-.61-2.291-.955a9.612,9.612,0,0,0-10.546,1.631c-.108.087-.208.179-.308.277a1.412,1.412,0,0,1-2.376,0L29.646,96.6a1.692,1.692,0,0,1-.119-2.262c.046-.042.092-.085.135-.129a9.593,9.593,0,0,0,1.887-10.856c-.347-.745-.67-1.527-.959-2.3a9.558,9.558,0,0,0-9.033-6.272,1.692,1.692,0,0,1-1.679-1.7V61.43a1.7,1.7,0,0,1,1.7-1.7,9.522,9.522,0,0,0,8.956-6.24c.312-.811.651-1.619,1-2.389a9.745,9.745,0,0,0,.889-4.076,9.483,9.483,0,0,0-2.776-6.744,1.69,1.69,0,0,1,0-2.393l8.236-8.236a1.7,1.7,0,0,1,2.407.008,9.739,9.739,0,0,0,10.777,1.875c.793-.356,1.606-.674,2.368-.97a9.681,9.681,0,0,0,6.3-9.014,1.678,1.678,0,0,1,1.675-1.679H73.083a1.691,1.691,0,0,1,1.679,1.721Z" transform="translate(31.346 18.231)" fill="#293546"/></g></g><g transform="translate(958.625 93.144)" opacity="0.819"><path d="M62.495,32.984c0,17.3-14.963,31.324-31.878,31.324S0,50.283,0,32.984,13.71,0,30.617,0A31.382,31.382,0,0,1,59.585,18.858,34.539,34.539,0,0,1,62.495,32.984Z" transform="translate(45.473 197.094) rotate(45)" fill="#181818"/><path d="M17.507,0h-2.72A17,17,0,0,1,12.5.415C10.967.415,6.379,0,6.379,0H3.543A3.539,3.539,0,0,0,0,3.543v5.41A3.539,3.539,0,0,0,3.543,12.5H6.379s4.588-.415,6.117-.415a17.005,17.005,0,0,1,2.29.415h2.72c.453,0,.822-.53.822-1.183V1.176C18.329.523,17.96,0,17.507,0Z" transform="translate(446.051 45.17) rotate(45)" fill="#00ffd7"/><g transform="translate(455.728 61.316) rotate(45)"><path d="M24.953,134.533l-3.235-.784C39.724,58.935,30.371,27.188,19.343,13.731,10.621,3.072.569,3.326.138,3.341L0,.006c.484-.023,12.019-.4,21.833,11.5,7.247,8.792,11.6,21.9,12.911,38.979,1.683,21.8-1.614,50.083-9.791,84.051Z" transform="translate(0 0)" fill="url(#a)"/></g><g transform="translate(454.45 54.153) rotate(45)" opacity="0.4"><path d="M.417,11.667H0V0H.417V11.667Z" transform="translate(0 0)"/></g><g transform="translate(455.176 61.945) rotate(45)"><path d="M24.093,133.505l-1.622-.4c18.244-74.03,8.876-106.13-2.2-120.025C11.3,1.814.515,1.668.046,1.668H.038L0,0C.469-.007,11.881-.092,21.533,11.982c7.086,8.861,11.3,21.895,12.542,38.756,1.583,21.6-1.775,49.453-9.983,82.768Z" transform="translate(0 0)" fill="url(#b)"/></g><g transform="translate(454.719 94.92) rotate(45)"><path d="M.407,109.712l-.407-.1C12.481,58.967,14.532,21.987,5.341,0h0C14.563,22.071,12.9,58.983.407,109.712Z" transform="translate(0 0)" fill="url(#c)"/></g><path d="M.822,0H3.543a17,17,0,0,0,2.29.415C7.362.415,11.95,0,11.95,0h2.836a3.539,3.539,0,0,1,3.543,3.543v5.41A3.539,3.539,0,0,1,14.786,12.5H11.95s-4.588-.415-6.117-.415a17,17,0,0,0-2.29.415H.822C.369,12.5,0,11.966,0,11.312V1.176C0,.523.369,0,.822,0Z" transform="translate(422.466 21.586) rotate(45)" fill="#00ffd7"/><g transform="translate(394.412 0) rotate(45)"><path d="M10.218,134.533l3.243-.784C-4.553,58.935,4.8,27.188,15.828,13.731,24.55,3.072,34.6,3.326,35.033,3.341L35.171.006c-.484-.023-12.019-.4-21.833,11.5C6.091,20.294,1.741,33.405.427,50.481c-1.683,21.8,1.614,50.083,9.791,84.051Z" transform="translate(0 0)" fill="url(#d)"/></g><g transform="translate(426.151 25.854) rotate(45)" opacity="0.4"><path d="M0,11.667H.417V0H0V11.667Z" transform="translate(0 0)"/></g><g transform="translate(394.289 1.058) rotate(45)"><path d="M10.364,133.505l1.622-.4c-18.244-74.03-8.876-106.13,2.2-120.025C23.152,1.814,33.941,1.668,34.41,1.668h.015L34.456,0c-.469-.008-11.881-.092-21.534,11.981C5.837,20.842,1.618,33.876.381,50.737c-1.583,21.6,1.775,49.453,9.983,82.768Z" transform="translate(0 0)" fill="url(#e)"/></g><g transform="translate(377.754 17.955) rotate(45)"><path d="M10.8,109.712l.407-.1C-1.274,58.967-3.326,21.987,5.865,0h0C-3.357,22.071-1.7,58.983,10.8,109.712Z" transform="translate(0 0)" fill="url(#f)"/></g><path d="M61.242,31.317c0,17.3-13.71,31.324-30.625,31.324S0,48.616,0,31.317,13.71,0,30.617,0,61.242,14.025,61.242,31.317Z" transform="translate(44.295 198.271) rotate(45)"/><path d="M55.417,28.819c0,15.916-12.411,28.819-27.712,28.819S0,44.735,0,28.819,12.4,0,27.7,0,55.417,12.9,55.417,28.819Z" transform="translate(44.881 201.217) rotate(45)" fill="#fff"/><path d="M26.114,13.126A13.1,13.1,0,0,0,13.057,0,12.894,12.894,0,0,0,5.733,2.267h0l-3.512,2.5.369.515A13.14,13.14,0,0,0,13.057,26.252a12.805,12.805,0,0,0,4.15-.684l.323.453L20.1,24.177c.361-.238.715-.484,1.045-.753l.054-.038h0A13.115,13.115,0,0,0,26.114,13.126Z" transform="translate(43.517 222.047) rotate(45)" fill="url(#g)"/><path d="M12.823,3.535,7.782,0,1.934,8.346a1.181,1.181,0,0,0-1.376.43l-.346.492a1.176,1.176,0,0,0,.069,1.437l-.023.038.246.169h0L5.054,14.1h0l.246.169.023-.031A1.181,1.181,0,0,0,6.7,13.81l.346-.492a1.176,1.176,0,0,0-.069-1.437Z" transform="translate(59.707 227.563) rotate(45)" fill="url(#h)"/><path d="M26.106,13.126A13.053,13.053,0,1,1,13.049,0,13.09,13.09,0,0,1,26.106,13.126Z" transform="translate(39.975 221.448) rotate(45)" fill="url(#i)"/><path d="M168.966,142.628a152.465,152.465,0,0,0-32.915,3.558V88.879c0-8.223,1.668-17.291,11.143-21.772,21.756-10.275,26.567-25.722,27.5-28.02s8.953-31.555,9.268-33.222.523-4.38-5-5.625-6.54,2.813-6.54,2.813S169.281,14.926,162.3,36.067s-32.446,22.087-32.446,22.087S104.4,57.217,97.418,36.067,87.3,3.052,87.3,3.052,86.274-1.013,80.757.24s-5.318,3.958-5,5.625S84.084,36.8,85.022,39.088s5.748,17.745,27.5,28.02C122,71.588,123.67,80.656,123.67,88.879v60.6C49.732,172.469,10.208,246.284,1.055,259.71c0,0-2.444,3.643.108,5.1l4.427,3.281s1.967,1.66,3.174-.261C22.9,245.316,60.8,183.451,123.67,161.741v15.47s-4.911,126.25,85.919,126.25c49.169,0,64.585-47.709,64.585-71.671C274.174,231.79,272.3,142.628,168.966,142.628ZM210,290.542c-78.118,0-73.953-113.124-73.953-113.124V158.091a137.988,137.988,0,0,1,33.122-4c90.415,0,92.29,77.7,92.29,77.7C261.463,247.206,254.17,290.542,210,290.542Z" transform="translate(251.54 45.407) rotate(45)" fill="url(#j)"/><g transform="translate(39.974 221.448) rotate(45)"><path d="M13.887.838a12.975,12.975,0,0,1,8.769,3.4A13.039,13.039,0,0,0,0,13.126a13.12,13.12,0,0,0,4.281,9.722A13.136,13.136,0,0,1,13.887.838Z" transform="translate(0 0)" fill="#fff"/></g><g transform="translate(246.422 52.17) rotate(45)" opacity="0.4"><path d="M33.983,59.206A33.077,33.077,0,0,1,40.708,78.4v61.6l5-1.391V78.4a33.077,33.077,0,0,1,6.724-19.19C89.316,43.19,87.786,21.941,93.619,0,78.48,55.409,43.205,56.109,43.205,56.109S19.489,55.363,0,20.273C6.186,36.3,8.092,44.934,33.983,59.206Z" transform="translate(85.642 0)" fill="#797581"/><path d="M269.676,85S268.639,0,167.28,0C63.847,0,0,117.812,0,117.812l4.427,3.282C72.393-2.705,167.28,3.128,167.28,3.128c78.088,0,96.355,57.154,96.355,81.876,0,65.83-55.417,63.955-55.417,63.955-80.416,0-76.874-117.912-76.874-117.912V11.881l-5,1.153V31.048c0,128.74,81.869,120.617,81.869,120.617C271.759,151.664,269.676,85,269.676,85Z" transform="translate(0 138.6)" fill="#797581"/></g><g transform="translate(452.487 92.686) rotate(45)"><path d="M21.549,10.774A10.774,10.774,0,1,1,10.774,0,10.774,10.774,0,0,1,21.549,10.774Z" transform="translate(0 0)" fill="#fff"/><path d="M8.73,4.357A4.365,4.365,0,1,1,4.365,0,4.362,4.362,0,0,1,8.73,4.357Z" transform="translate(6.409 6.417)" fill="#0470fe"/></g><g transform="translate(312.834 80.193) rotate(45)"><path d="M21.557,10.774A10.778,10.778,0,1,1,10.782,0,10.777,10.777,0,0,1,21.557,10.774Z" transform="translate(0 0)" fill="#fff"/><path d="M8.73,4.365A4.365,4.365,0,1,1,4.365,0,4.367,4.367,0,0,1,8.73,4.365Z" transform="translate(6.417 6.409)" fill="#af58fa"/></g><g transform="translate(268.143 197.418) rotate(45)"><g transform="translate(0 0)" opacity="0.027"><path d="M21.549,10.774A10.774,10.774,0,1,1,10.774,0,10.777,10.777,0,0,1,21.549,10.774Z" transform="translate(27.297 27.297)" opacity="0"/><path d="M21.557,10.774A10.778,10.778,0,1,1,10.782,0,10.777,10.777,0,0,1,21.557,10.774Z" transform="translate(26.844 26.852)" opacity="0.016"/><circle cx="10.777" cy="10.777" r="10.777" transform="translate(26.4 26.4)" opacity="0.033"/><path d="M21.549,10.774A10.774,10.774,0,1,1,10.774,0,10.774,10.774,0,0,1,21.549,10.774Z" transform="translate(25.952 25.952)" opacity="0.049"/><path d="M21.549,10.774A10.774,10.774,0,1,1,10.774,0,10.777,10.777,0,0,1,21.549,10.774Z" transform="translate(25.507 25.507)" opacity="0.066"/><path d="M21.557,10.774A10.778,10.778,0,1,1,10.782,0,10.777,10.777,0,0,1,21.557,10.774Z" transform="translate(25.053 25.061)" opacity="0.082"/><path d="M21.557,10.782A10.778,10.778,0,1,1,10.774,0,10.779,10.779,0,0,1,21.557,10.782Z" transform="translate(24.608 24.608)" opacity="0.098"/><path d="M21.549,10.774A10.774,10.774,0,1,1,10.774,0,10.774,10.774,0,0,1,21.549,10.774Z" transform="translate(24.162 24.162)" opacity="0.115"/><path d="M21.549,10.774A10.774,10.774,0,1,1,10.774,0,10.768,10.768,0,0,1,21.549,10.774Z" transform="translate(23.716 23.716)" opacity="0.131"/><path d="M21.549,10.774A10.774,10.774,0,1,1,10.774,0,10.777,10.777,0,0,1,21.549,10.774Z" transform="translate(23.27 23.27)" opacity="0.148"/><path d="M21.557,10.774A10.778,10.778,0,1,1,10.774,0,10.779,10.779,0,0,1,21.557,10.774Z" transform="translate(22.817 22.825)" opacity="0.164"/><path d="M21.549,10.774A10.774,10.774,0,1,1,10.774,0,10.774,10.774,0,0,1,21.549,10.774Z" transform="translate(22.371 22.371)" opacity="0.18"/><path d="M21.549,10.774A10.774,10.774,0,1,1,10.774,0,10.772,10.772,0,0,1,21.549,10.774Z" transform="translate(21.925 21.925)" opacity="0.197"/><path d="M21.549,10.774A10.774,10.774,0,1,1,10.774,0,10.777,10.777,0,0,1,21.549,10.774Z" transform="translate(21.48 21.48)" opacity="0.213"/><path d="M21.549,10.774A10.774,10.774,0,1,1,10.774,0,10.777,10.777,0,0,1,21.549,10.774Z" transform="translate(21.034 21.034)" opacity="0.23"/><path d="M21.557,10.782A10.778,10.778,0,1,1,10.774,0,10.779,10.779,0,0,1,21.557,10.782Z" transform="translate(20.581 20.581)" opacity="0.246"/><path d="M21.549,10.774A10.774,10.774,0,1,1,10.774,0,10.779,10.779,0,0,1,21.549,10.774Z" transform="translate(20.135 20.135)" opacity="0.262"/><path d="M21.549,10.774A10.774,10.774,0,1,1,10.774,0,10.773,10.773,0,0,1,21.549,10.774Z" transform="translate(19.689 19.689)" opacity="0.279"/><path d="M21.557,10.774A10.778,10.778,0,1,1,10.782,0,10.777,10.777,0,0,1,21.557,10.774Z" transform="translate(19.236 19.243)" opacity="0.295"/><path d="M21.557,10.782A10.778,10.778,0,1,1,10.774,0,10.779,10.779,0,0,1,21.557,10.782Z" transform="translate(18.79 18.79)" opacity="0.311"/><path d="M21.549,10.774A10.774,10.774,0,1,1,10.774,0,10.774,10.774,0,0,1,21.549,10.774Z" transform="translate(18.344 18.344)" opacity="0.328"/><path d="M21.549,10.774A10.774,10.774,0,1,1,10.774,0,10.773,10.773,0,0,1,21.549,10.774Z" transform="translate(17.898 17.898)" opacity="0.344"/><path d="M21.549,10.774A10.774,10.774,0,1,1,10.774,0,10.777,10.777,0,0,1,21.549,10.774Z" transform="translate(17.453 17.453)" opacity="0.361"/><path d="M21.557,10.782A10.778,10.778,0,1,1,10.782,0,10.777,10.777,0,0,1,21.557,10.782Z" transform="translate(16.999 16.999)" opacity="0.377"/><path d="M21.557,10.782A10.778,10.778,0,1,1,10.774,0,10.779,10.779,0,0,1,21.557,10.782Z" transform="translate(16.554 16.554)" opacity="0.393"/><path d="M21.549,10.774A10.774,10.774,0,1,1,10.774,0,10.772,10.772,0,0,1,21.549,10.774Z" transform="translate(16.108 16.108)" opacity="0.41"/><path d="M21.549,10.774A10.774,10.774,0,1,1,10.774,0,10.777,10.777,0,0,1,21.549,10.774Z" transform="translate(15.662 15.662)" opacity="0.426"/><path d="M21.557,10.774A10.778,10.778,0,1,1,10.782,0,10.777,10.777,0,0,1,21.557,10.774Z" transform="translate(15.209 15.216)" opacity="0.443"/><path d="M21.557,10.774A10.778,10.778,0,1,1,10.774,0,10.781,10.781,0,0,1,21.557,10.774Z" transform="translate(14.763 14.763)" opacity="0.459"/><path d="M21.549,10.774A10.774,10.774,0,1,1,10.774,0,10.773,10.773,0,0,1,21.549,10.774Z" transform="translate(14.317 14.317)" opacity="0.475"/><path d="M21.549,10.774A10.774,10.774,0,1,1,10.774,0,10.777,10.777,0,0,1,21.549,10.774Z" transform="translate(13.871 13.872)" opacity="0.492"/><path d="M21.557,10.774A10.778,10.778,0,1,1,10.782,0,10.777,10.777,0,0,1,21.557,10.774Z" transform="translate(13.418 13.426)" opacity="0.508"/><path d="M21.557,10.774A10.778,10.778,0,1,1,10.774,0,10.781,10.781,0,0,1,21.557,10.774Z" transform="translate(12.972 12.972)" opacity="0.525"/><circle cx="10.776" cy="10.776" r="10.776" transform="translate(12.526 12.527)" opacity="0.541"/><path d="M21.549,10.774A10.774,10.774,0,1,1,10.774,0,10.772,10.772,0,0,1,21.549,10.774Z" transform="translate(12.081 12.081)" opacity="0.557"/><path d="M21.557,10.774A10.778,10.778,0,1,1,10.782,0,10.777,10.777,0,0,1,21.557,10.774Z" transform="translate(11.627 11.635)" opacity="0.574"/><path d="M21.557,10.782A10.778,10.778,0,1,1,10.774,0,10.779,10.779,0,0,1,21.557,10.782Z" transform="translate(11.182 11.182)" opacity="0.59"/><path d="M21.557,10.774A10.778,10.778,0,1,1,10.774,0,10.781,10.781,0,0,1,21.557,10.774Z" transform="translate(10.736 10.736)" opacity="0.607"/><circle cx="10.776" cy="10.776" r="10.776" transform="translate(10.289 10.289)" opacity="0.623"/><path d="M21.549,10.774A10.774,10.774,0,1,1,10.774,0,10.777,10.777,0,0,1,21.549,10.774Z" transform="translate(9.845 9.845)" opacity="0.639"/><path d="M21.557,10.774A10.778,10.778,0,1,1,10.782,0,10.777,10.777,0,0,1,21.557,10.774Z" transform="translate(9.391 9.399)" opacity="0.656"/><path d="M21.557,10.774A10.778,10.778,0,1,1,10.774,0,10.781,10.781,0,0,1,21.557,10.774Z" transform="translate(8.945 8.945)" opacity="0.672"/><path d="M21.549,10.774A10.774,10.774,0,1,1,10.774,0,10.768,10.768,0,0,1,21.549,10.774Z" transform="translate(8.5 8.5)" opacity="0.689"/><path d="M21.549,10.774A10.774,10.774,0,1,1,10.774,0,10.777,10.777,0,0,1,21.549,10.774Z" transform="translate(8.054 8.054)" opacity="0.705"/><path d="M21.557,10.774A10.778,10.778,0,1,1,10.782,0,10.777,10.777,0,0,1,21.557,10.774Z" transform="translate(7.6 7.608)" opacity="0.721"/><path d="M21.556,10.782A10.778,10.778,0,1,1,10.774,0,10.779,10.779,0,0,1,21.556,10.782Z" transform="translate(7.155 7.155)" opacity="0.738"/><path d="M21.549,10.774A10.774,10.774,0,1,1,10.774,0,10.768,10.768,0,0,1,21.549,10.774Z" transform="translate(6.709 6.709)" opacity="0.754"/><path d="M21.549,10.774A10.774,10.774,0,1,1,10.774,0,10.777,10.777,0,0,1,21.549,10.774Z" transform="translate(6.263 6.263)" opacity="0.77"/><path d="M21.549,10.782A10.774,10.774,0,1,1,10.774,0,10.777,10.777,0,0,1,21.549,10.782Z" transform="translate(5.818 5.81)" opacity="0.787"/><path d="M21.557,10.782A10.778,10.778,0,1,1,10.782,0,10.777,10.777,0,0,1,21.557,10.782Z" transform="translate(5.364 5.364)" opacity="0.803"/><path d="M21.549,10.774A10.774,10.774,0,1,1,10.774,0,10.774,10.774,0,0,1,21.549,10.774Z" transform="translate(4.918 4.918)" opacity="0.82"/><path d="M21.549,10.774A10.774,10.774,0,1,1,10.774,0,10.772,10.772,0,0,1,21.549,10.774Z" transform="translate(4.473 4.473)" opacity="0.836"/><path d="M21.549,10.774A10.774,10.774,0,1,1,10.774,0,10.777,10.777,0,0,1,21.549,10.774Z" transform="translate(4.027 4.027)" opacity="0.852"/><path d="M21.557,10.782A10.778,10.778,0,1,1,10.782,0,10.777,10.777,0,0,1,21.557,10.782Z" transform="translate(3.574 3.574)" opacity="0.869"/><path d="M21.557,10.774A10.778,10.778,0,1,1,10.774,0,10.781,10.781,0,0,1,21.557,10.774Z" transform="translate(3.128 3.128)" opacity="0.885"/><path d="M21.549,10.774A10.774,10.774,0,1,1,10.774,0,10.768,10.768,0,0,1,21.549,10.774Z" transform="translate(2.682 2.682)" opacity="0.902"/><path d="M21.549,10.774A10.774,10.774,0,1,1,10.774,0,10.777,10.777,0,0,1,21.549,10.774Z" transform="translate(2.236 2.236)" opacity="0.918"/><circle cx="10.776" cy="10.776" r="10.776" transform="translate(1.786 1.787)" opacity="0.934"/><path d="M21.556,10.774A10.778,10.778,0,1,1,10.774,0,10.781,10.781,0,0,1,21.556,10.774Z" transform="translate(1.337 1.337)" opacity="0.951"/><path d="M21.549,10.774A10.774,10.774,0,1,1,10.774,0,10.768,10.768,0,0,1,21.549,10.774Z" transform="translate(0.891 0.891)" opacity="0.967"/><path d="M21.549,10.774A10.774,10.774,0,1,1,10.774,0,10.777,10.777,0,0,1,21.549,10.774Z" transform="translate(0.446 0.446)" opacity="0.984"/><path d="M21.549,10.774A10.774,10.774,0,1,1,10.774,0,10.777,10.777,0,0,1,21.549,10.774Z" transform="translate(0 0)"/></g><path d="M21.549,10.774A10.774,10.774,0,1,1,10.774,0,10.777,10.777,0,0,1,21.549,10.774Z" transform="translate(0 0)" fill="#fff"/><path d="M8.73,4.365A4.365,4.365,0,1,1,4.365,0,4.372,4.372,0,0,1,8.73,4.365Z" transform="translate(6.409 6.409)" fill="#af58fa"/></g><g transform="translate(123.138 210.384) rotate(45)"><path d="M21.549,10.782A10.774,10.774,0,1,1,10.774,0,10.777,10.777,0,0,1,21.549,10.782Z" transform="translate(0 0)" fill="#fff"/><path d="M8.73,4.365A4.365,4.365,0,1,1,4.365,0,4.372,4.372,0,0,1,8.73,4.365Z" transform="translate(6.409 6.417)" fill="#006cff"/></g><g transform="translate(169.687 343.163) rotate(45)"><path d="M21.549,10.774A10.774,10.774,0,1,1,10.774,0,10.779,10.779,0,0,1,21.549,10.774Z" transform="translate(0 0)" fill="#fff"/><path d="M8.73,4.365A4.365,4.365,0,1,1,4.365,0,4.367,4.367,0,0,1,8.73,4.365Z" transform="translate(6.409 6.409)" fill="#af58fa"/></g></g><rect width="614" height="417" transform="translate(825.333 107)" fill="none"/></g></svg>